HIERARCHY
ROOT Hips
{
	OFFSET -0.001795 -0.223333 0.028219
	CHANNELS 6 Xposition Yposition Zposition Zrotation Yrotation Xrotation 
	JOINT LeftUpLeg
	{
		OFFSET 0.069520 -0.091406 -0.006815
		CHANNELS 3 Zrotation Yrotation Xrotation
		JOINT LeftLeg
		{
			OFFSET 0.034277 -0.375199 -0.004496
			CHANNELS 3 Zrotation Yrotation Xrotation
			JOINT LeftFoot
			{
				OFFSET -0.013596 -0.397961 -0.043693
				CHANNELS 3 Zrotation Yrotation Xrotation
				JOINT LeftToe
				{
					OFFSET 0.026358 -0.055791 0.119288
					CHANNELS 3 Zrotation Yrotation Xrotation
					End Site
					{
						OFFSET 0.000000 0.000000 0.000000
					}
				}
			}
		}
	}
	JOINT RightUpLeg
	{
		OFFSET -0.067670 -0.090522 -0.004320
		CHANNELS 3 Zrotation Yrotation Xrotation
		JOINT RightLeg
		{
			OFFSET -0.038290 -0.382569 -0.008850
			CHANNELS 3 Zrotation Yrotation Xrotation
			JOINT RightFoot
			{
				OFFSET 0.015774 -0.398415 -0.042312
				CHANNELS 3 Zrotation Yrotation Xrotation
				JOINT RightToe
				{
					OFFSET -0.025372 -0.048144 0.123348
					CHANNELS 3 Zrotation Yrotation Xrotation
					End Site
					{
						OFFSET 0.000000 0.000000 0.000000
					}
				}
			}
		}
	}
	JOINT Spine
	{
		OFFSET -0.002533 0.108963 -0.026696
		CHANNELS 3 Zrotation Yrotation Xrotation
		JOINT Spine1
		{
			OFFSET 0.005487 0.135180 0.001092
			CHANNELS 3 Zrotation Yrotation Xrotation
			JOINT Spine2
			{
				OFFSET 0.001457 0.052922 0.025425
				CHANNELS 3 Zrotation Yrotation Xrotation
				JOINT Neck
				{
					OFFSET -0.002778 0.213870 -0.042857
					CHANNELS 3 Zrotation Yrotation Xrotation
					JOINT Head
					{
						OFFSET 0.005152 0.064970 0.051349
						CHANNELS 3 Zrotation Yrotation Xrotation
						End Site
						{
							OFFSET 0.000000 0.000000 0.000000
						}
					}
				}
				JOINT LeftShoulder
				{
					OFFSET 0.078845 0.121749 -0.034090
					CHANNELS 3 Zrotation Yrotation Xrotation
					JOINT LeftArm
					{
						OFFSET 0.090977 0.030469 -0.008868
						CHANNELS 3 Zrotation Yrotation Xrotation
						JOINT LeftForeArm
						{
							OFFSET 0.259612 -0.012772 -0.027456
							CHANNELS 3 Zrotation Yrotation Xrotation
							JOINT LeftHand
							{
								OFFSET 0.249234 0.008986 -0.001171
								CHANNELS 3 Zrotation Yrotation Xrotation
								End Site
								{
									OFFSET 0.000000 0.000000 0.000000
								}
							}
						}
					}
				}
				JOINT RightShoulder
				{
					OFFSET -0.081759 0.118833 -0.038615
					CHANNELS 3 Zrotation Yrotation Xrotation
					JOINT RightArm
					{
						OFFSET -0.096012 0.032551 -0.009143
						CHANNELS 3 Zrotation Yrotation Xrotation
						JOINT RightForeArm
						{
							OFFSET -0.253742 -0.013329 -0.021401
							CHANNELS 3 Zrotation Yrotation Xrotation
							JOINT RightHand
							{
								OFFSET -0.255298 0.007772 -0.005559
								CHANNELS 3 Zrotation Yrotation Xrotation
								End Site
								{
									OFFSET 0.000000 0.000000 0.000000
								}
							}
						}
					}
				}
			}
		}
	}
}
MOTION
Frames: 5
Frame Time: 0.050000
0.000000 0.715757 0.000000 -3.835363 -38.827993 6.113420 13.026366 12.584893 -48.106110 0.327339 14.907611 84.685878 7.595059 9.373840 -24.338951 0.000000 0.000000 0.000000 -27.824786 4.815244 -49.082694 45.938220 -12.544852 48.221233 -17.861552 -52.281892 -9.040940 0.000000 0.000000 0.000000 5.027869 5.150817 52.100663 -4.742221 0.983532 -29.422595 -3.409899 10.865578 22.863308 12.628417 -8.848369 -12.765067 0.000000 0.000000 0.000000 4.576819 -17.802957 5.519227 -19.059760 -19.932783 -0.866787 127.226352 -28.568816 -46.222621 0.000000 0.000000 0.000000 6.064372 8.883890 2.923333 4.933048 33.123646 -1.769368 -119.949217 43.345600 -65.965166 0.000000 0.000000 0.000000 
0.000191 0.720799 0.000842 -4.838344 -36.749071 6.616787 8.718677 10.475048 -51.346651 6.391821 7.010559 86.226793 6.139806 6.443082 -20.720289 0.000000 0.000000 0.000000 -29.570846 4.008072 -47.388071 49.629423 -13.322082 44.163252 -20.163418 -52.730660 -3.472317 0.000000 0.000000 0.000000 8.506653 3.765857 56.134946 -9.341958 1.780350 -33.543075 0.172421 6.795404 25.249015 12.023852 -9.000601 -11.998265 0.000000 0.000000 0.000000 0.847413 -19.186369 6.770367 -12.190601 -22.994474 -1.088132 122.467496 -25.444652 -36.632731 0.000000 0.000000 0.000000 1.429785 6.792707 2.144791 3.402665 32.403683 -2.168855 -111.411462 41.844413 -57.914420 0.000000 0.000000 0.000000 
-0.000148 0.720911 0.001945 -3.872640 -34.491553 6.853781 8.227422 10.180270 -53.615331 4.332477 7.658798 86.669478 5.969535 6.964814 -17.658542 0.000000 0.000000 0.000000 -32.554910 2.942757 -47.893554 52.720037 -15.342445 42.597648 -23.490279 -54.483641 2.485397 0.000000 0.000000 0.000000 9.142449 3.030386 57.468386 -7.271449 1.456828 -33.522146 -1.688810 5.587053 26.041095 11.050995 -8.473797 -11.560742 0.000000 0.000000 0.000000 -2.511126 -19.301817 7.639629 -9.231231 -19.772934 -1.390849 123.409659 -24.362964 -36.423256 0.000000 0.000000 0.000000 1.685728 7.047424 2.242027 -1.532385 32.035206 -3.085871 -110.537056 36.460742 -50.555137 0.000000 0.000000 0.000000 
-0.000696 0.725600 0.003875 -2.971414 -33.733828 7.325584 7.225942 9.773091 -55.262415 2.653659 8.869041 86.106137 7.014017 11.290477 -13.573037 0.000000 0.000000 0.000000 -34.362636 2.443756 -49.301693 54.081014 -15.505919 39.697287 -35.444993 -59.769679 19.791308 0.000000 0.000000 0.000000 11.211916 2.009922 59.242657 -8.987810 1.707394 -33.513292 -3.600118 3.986444 25.487431 11.016970 -9.057115 -8.467879 0.000000 0.000000 0.000000 -1.325534 -18.935695 7.260249 -9.130805 -18.716603 -1.394758 120.211907 -23.647844 -32.777332 0.000000 0.000000 0.000000 0.940379 4.678725 1.460924 -4.358851 32.681091 -3.793197 -106.686002 33.808532 -44.740723 0.000000 0.000000 0.000000 
-0.001782 0.725141 0.006466 -2.380370 -33.319815 7.525504 8.470250 10.474608 -55.430041 -0.895863 12.361828 84.851444 8.557133 15.533187 -11.293358 0.000000 0.000000 0.000000 -34.846031 2.214447 -51.457691 53.846182 -15.447346 38.381890 -50.468256 -64.676011 36.065681 0.000000 0.000000 0.000000 11.753280 2.011173 62.299576 -10.189585 1.791659 -36.177991 -3.483855 2.962258 27.026249 11.263732 -9.450258 -8.164465 0.000000 0.000000 0.000000 -1.048286 -17.645566 6.729386 -9.930491 -16.778359 -1.535643 121.087658 -24.353607 -34.245171 0.000000 0.000000 0.000000 1.209078 2.820483 0.817770 -8.106363 31.318339 -4.323444 -104.285861 31.459459 -40.605856 0.000000 0.000000 0.000000 
